# xmcd
# 
# Track frame offsets:
#     150
#     11495
#     26760
#     42310
#     57503
#     70595
#     91930
#     106823
#     120348
#     137480
#     168890
# 
# Disc length: 2565
# 
# Revision: 2
# Processed by: cddbd v1.5.2PL0 Copyright (c) Steve Scherf et al.
# Submitted via: fre:ac v1.0.17
# 
DISCID=820a030b
DTITLE=Hungry John and the Blue Shadows - Live
DYEAR=1989
DGENRE=Blues
TTITLE0=Let's Rock While The Rockin's Good
TTITLE1=You Got Money
TTITLE2=ManNeed's Lovin' All The Time
TTITLE3=Nightmare
TTITLE4=Waistin'
TTITLE5=Night Train
TTITLE6=Comfort
TTITLE7=Manãna
TTITLE8=Telephone
TTITLE9=The Way I Thought
TTITLE10=I'm On Fire
EXTD=
EXTT0=
EXTT1=
EXTT2=
EXTT3=
EXTT4=
EXTT5=
EXTT6=
EXTT7=
EXTT8=
EXTT9=
EXTT10=
PLAYORDER=
